<svg width="1320" height="1025" viewBox="0 0 1320 1025" fill="none" xmlns="http://www.w3.org/2000/svg">
<path fill-rule="evenodd" clip-rule="evenodd" d="M352.574 1025H359.936C391.759 964.557 467.438 829.167 564.598 712.016C607.69 660.139 659.113 615.664 716.799 580.38C774.635 544.955 837.93 519.158 904.172 504.012C1032.68 475.64 1153.95 421.433 1260.5 344.742C1280.63 330.036 1300.5 314.235 1320 297.262V288.397C1299.23 306.721 1278.04 323.686 1256.53 339.388C1150.74 415.58 1030.3 469.415 902.663 497.556C835.719 512.889 771.755 538.979 713.306 574.79C655.053 610.444 603.122 655.37 559.596 707.764C460.417 827.259 383.533 965.873 352.574 1025ZM973.721 0C941.892 60.5337 865.799 196.843 768.009 314.588C724.53 366.998 672.622 411.927 614.379 447.563C555.908 483.388 491.916 509.478 424.942 524.797C297.34 552.954 176.926 606.788 71.1567 682.964C46.989 700.608 23.2153 719.854 0 740.832V731.857C21.9568 712.298 44.3978 694.253 67.187 677.611C173.715 600.893 294.995 546.683 423.513 518.341C489.746 503.166 553.036 477.371 610.886 441.973C668.535 406.672 719.952 362.229 763.086 310.416C858.736 194.886 933.646 61.6802 966.23 0L973.721 0Z" fill="#3D3C3B"/>
</svg>
