<svg xmlns="http://www.w3.org/2000/svg" width="55" height="55" viewBox="0 0 55 55" fill="none"><g clip-path="url(#clip0_7731_1302)"><rect width="55" height="55" rx="10.7818" fill="white"/><path fill-rule="evenodd" clip-rule="evenodd" d="M-18.7878 55.1946C-18.6673 54.913 -18.326 54.1762 -17.7416 53.1118C-16.7101 51.1856 -15.5368 49.3374 -14.2312 47.5824C-12.4451 45.1322 -10.4586 42.8342 -8.29201 40.712C-3.59738 36.1023 1.96192 32.4627 8.06744 30.0017C11.4404 28.6676 14.9365 27.6941 18.4973 27.0923C20.709 26.3417 22.8324 25.3473 24.8269 24.1256C27.7326 22.3482 30.3229 20.1078 32.4935 17.4946C38.8247 9.86026 43.3452 0.688337 43.6147 0.141549C43.6227 0.125386 43.6274 0.115922 43.6274 0.115922L43.6714 0.0207341L43.9584 0.0207341L71.0303 0.0207365L71.4183 0.0207365L72.6987 0.0207366L72.886 0.0207366L73.7754 0.0207367C73.6825 0.244396 73.4415 0.774334 73.0402 1.54034C72.3903 2.8116 71.6717 4.04701 70.8873 5.24102C68.7018 8.59737 66.1532 11.7035 63.2875 14.5035C58.5965 19.1138 53.0397 22.7536 46.936 25.2138C43.5705 26.5449 40.0823 27.517 36.5297 28.1192C34.3046 28.8715 32.1683 29.87 30.1619 31.0977C29.6995 31.3809 29.245 31.6758 28.7988 31.982C26.5179 33.5869 24.4469 35.5003 22.6501 37.6825C16.1421 45.6266 11.5419 55.2026 11.5419 55.2026L11.3254 55.2026L11.2214 55.2026L-16.0784 55.2026L-16.4067 55.2026L-17.1944 55.2026L-17.8972 55.2026L-18.7878 55.2026L-18.7841 55.1947L-18.7878 55.1946ZM-12.1336 48.2845C-13.6941 50.3556 -15.0813 52.5513 -16.2811 54.8496L-18.2793 54.8694C-17.0671 52.38 -15.6282 50.0071 -13.9809 47.7808C-12.2004 45.3443 -10.2205 43.0595 -8.06159 40.95C-3.40151 36.3756 2.11569 32.7631 8.17471 30.319C14.3229 27.89 20.882 26.6658 27.4938 26.7132C33.8586 26.7579 40.1728 25.5823 46.0938 23.2502C51.9286 20.9075 57.2445 17.4407 61.7382 13.0476C64.1164 10.728 66.2675 8.18702 68.162 5.45918C69.3075 3.82247 70.3452 2.11315 71.2686 0.342033L73.255 0.342033C72.4734 1.96677 71.5856 3.53837 70.5973 5.04664C68.4283 8.38731 65.897 11.4789 63.0492 14.2654C58.3895 18.8393 52.8721 22.4506 46.8129 24.8924C40.6648 27.3218 34.1056 28.546 27.4938 28.4982C21.1134 28.4547 14.7841 29.6358 8.85007 31.9771C3.00211 34.3317 -2.32252 37.8164 -6.81815 42.2312C-8.74362 44.1091 -10.5207 46.1329 -12.1336 48.2845Z" fill="#E30016"/></g><rect x="0.5" y="0.5" width="54" height="54" rx="10.2818" stroke="#E52716" stroke-opacity="0.3"/><defs><clipPath id="clip0_7731_1302"><rect width="55" height="55" rx="10.7818" fill="white"/></clipPath></defs></svg>