<?xml version="1.0" encoding="UTF-8"?><svg xmlns="http://www.w3.org/2000/svg" xmlns:xlink="http://www.w3.org/1999/xlink" xmlns:xodm="http://www.corel.com/coreldraw/odm/2003" xml:space="preserve" width="15.4718mm" height="9.0945mm" version="1.1" style="shape-rendering:geometricPrecision; text-rendering:geometricPrecision; image-rendering:optimizeQuality; fill-rule:evenodd; clip-rule:evenodd" viewBox="0 0 316.23 185.88"><defs><style type="text/css"><![CDATA[ .str0 {stroke:#D2D3D5;stroke-width:1.56;stroke-miterlimit:22.926} .fil2 {fill:none} .fil1 {fill:#FEFEFE} .fil0 {fill:#CC4239} .fil3 {fill:#413E3C} ]]></style></defs><g id="Layer_x0020_1"><metadata id="CorelCorpID_0Corel-Layer"/><path class="fil0" d="M185.41 94.47c-7.45,2.54 -14.57,5.9 -21.21,10.01 -9.59,5.92 -18.21,13.41 -25.47,22.23 -21.69,26.38 -37,58.22 -37.04,58.3l-0.15 0.32 -92.08 0 0.16 -0.31c1.81,-3.55 5.24,-9.79 10.48,-17.34 5.24,-7.56 12.29,-16.45 21.34,-25.28 12.08,-11.8 29.25,-24.88 52.02,-33.98 17.3,-6.92 37.85,-11.54 61.87,-11.54 10.67,0 20.69,-0.87 30.08,-2.42z"/><path class="fil0" d="M209.47 0.22l91.77 0 -0.15 0.31c-2.18,4.28 -6.72,12.45 -13.95,22.16 -4.72,6.32 -10.58,13.3 -17.68,20.25 -12.1,11.85 -29.3,24.99 -52.12,34.13 -17.34,6.95 -37.94,11.59 -62.01,11.59 -10.67,0 -20.69,0.87 -30.07,2.42 7.44,-2.53 14.56,-5.89 21.21,-10 9.59,-5.93 18.21,-13.41 25.47,-22.24 21.69,-26.37 37,-58.21 37.04,-58.3l0.15 -0.32 0.35 0z"/><path class="fil1" d="M301.58 0.78c-3.61,7.09 -13.68,24.87 -31.73,42.55 -21.38,20.93 -58.59,45.89 -114.53,45.89 -58.33,0 -97.16,26.05 -119.47,47.91 -22.82,22.35 -33.21,44.44 -34.65,47.65l7.92 0c3.63,-7.12 13.77,-25.04 31.92,-42.76 21.34,-20.83 58.49,-45.67 114.29,-45.67 58.33,0 97.18,-26.06 119.5,-47.92 22.77,-22.3 33.18,-44.33 34.67,-47.63l-7.91 0z"/><path class="fil2 str0" d="M301.58 0.78c-3.61,7.09 -13.68,24.87 -31.73,42.55 -21.38,20.93 -58.59,45.89 -114.53,45.89 -58.33,0 -97.16,26.05 -119.47,47.91 -22.82,22.35 -33.21,44.44 -34.65,47.65l7.92 0c3.63,-7.12 13.77,-25.04 31.92,-42.76 21.34,-20.83 58.49,-45.67 114.29,-45.67 58.33,0 97.18,-26.06 119.5,-47.92 22.77,-22.3 33.18,-44.33 34.67,-47.63l-7.91 0z"/><path class="fil0" d="M287.13 22.68c7.23,-9.7 11.77,-17.88 13.95,-22.16l0.15 -0.31 9.13 0 -0.36 0.79c-0.96,2.13 -5.62,12.03 -14.89,24.77 -5.15,7.08 -11.74,15.05 -19.89,23.04 -12.73,12.46 -30.8,26.28 -54.78,35.9 -18.23,7.31 -39.85,12.19 -65.12,12.19 -24.02,0 -44.57,4.61 -61.87,11.53 -22.77,9.1 -39.94,22.18 -52.02,33.98 -9.04,8.83 -16.09,17.72 -21.34,25.27 -5.23,7.56 -8.67,13.79 -10.48,17.35l-0.15 0.3 -9.13 0 0.35 -0.79c0.73,-1.61 3.71,-7.97 9.35,-16.72 5.65,-8.75 13.97,-19.89 25.42,-31.1 12.72,-12.46 30.79,-26.28 54.75,-35.89 18.22,-7.31 39.85,-12.19 65.11,-12.19 24.08,0 44.67,-4.64 62.01,-11.59 22.82,-9.13 40.02,-22.29 52.12,-34.13 7.09,-6.95 12.96,-13.92 17.68,-20.25zm14.79 -21.34c-2.25,4.39 -6.78,12.48 -13.89,22.02 -4.74,6.36 -10.64,13.37 -17.8,20.38 -12.18,11.93 -29.5,25.17 -52.48,34.38 -17.47,6.99 -38.2,11.67 -62.43,11.67 -25.11,0 -46.59,4.84 -64.69,12.1 -23.81,9.55 -41.76,23.27 -54.39,35.64 -11.37,11.15 -19.65,22.22 -25.26,30.91 -4.92,7.63 -7.79,13.4 -8.91,15.78l6.69 0c1.86,-3.62 5.27,-9.76 10.41,-17.17 5.27,-7.61 12.37,-16.55 21.47,-25.44 12.16,-11.88 29.45,-25.06 52.38,-34.22 17.43,-6.97 38.12,-11.62 62.29,-11.62 25.12,0 46.6,-4.84 64.7,-12.1 23.82,-9.55 41.77,-23.28 54.41,-35.66 8.12,-7.95 14.66,-15.86 19.78,-22.89 8.34,-11.46 12.92,-20.6 14.41,-23.78l-6.7 0z"/><path class="fil3" d="M281.4 151.19l12.36 0c2.08,0 3.94,-0.39 5.59,-1.19 1.67,-0.8 2.99,-1.92 3.98,-3.37 0.98,-1.44 1.47,-3.15 1.47,-5.11 0,-2.54 -0.89,-4.65 -2.65,-6.36 -1.78,-1.71 -4.5,-2.57 -8.16,-2.57l-12.6 0 0 18.6zm0 26.78l13.31 0c4.41,0 7.59,-0.86 9.5,-2.57 1.9,-1.71 2.86,-3.85 2.86,-6.42 0,-1.93 -0.49,-3.7 -1.46,-5.31 -0.98,-1.61 -2.36,-2.91 -4.16,-3.86 -1.81,-0.95 -3.94,-1.43 -6.4,-1.43l-13.65 0 0 19.58zm-9.24 7.92l0 -61.15 22.4 0c4.34,0 7.95,0.72 10.79,2.14 2.85,1.41 4.97,3.34 6.4,5.76 1.4,2.41 2.11,5.14 2.11,8.17 0,2.54 -0.48,4.69 -1.4,6.43 -0.94,1.74 -2.18,3.14 -3.76,4.17 -1.56,1.05 -3.28,1.81 -5.14,2.29l0 0.6c2.03,0.1 4,0.74 5.96,1.95 1.93,1.2 3.54,2.91 4.82,5.13 1.28,2.2 1.9,4.89 1.9,8.05 0,3.13 -0.73,5.93 -2.18,8.41 -1.47,2.47 -3.73,4.44 -6.76,5.88 -3.04,1.44 -6.94,2.15 -11.67,2.15l-23.45 0zm-99.98 -34.7l12.36 0c2.07,0 3.94,-0.39 5.59,-1.19 1.67,-0.8 3,-1.92 3.98,-3.37 0.98,-1.44 1.47,-3.15 1.47,-5.11 0,-2.54 -0.88,-4.65 -2.64,-6.36 -1.78,-1.71 -4.5,-2.57 -8.16,-2.57l-12.6 0 0 18.6zm0 26.78l13.31 0c4.41,0 7.58,-0.86 9.5,-2.57 1.9,-1.71 2.86,-3.85 2.86,-6.42 0,-1.93 -0.49,-3.7 -1.46,-5.31 -0.98,-1.61 -2.37,-2.91 -4.16,-3.86 -1.81,-0.95 -3.94,-1.43 -6.41,-1.43l-13.64 0 0 19.58zm54.99 -23.17l0.01 0.01 0 -22.16 11.59 0c3.04,0 5.51,0.45 7.38,1.36 1.88,0.92 3.27,2.2 4.15,3.9 0.89,1.69 1.33,3.68 1.33,5.99 0,2.3 -0.43,4.26 -1.32,5.89 -0.87,1.62 -2.26,2.87 -4.13,3.73 -1.87,0.85 -4.32,1.28 -7.3,1.28l-11.7 0zm22.55 6.37l0 0.01c0.63,-0.24 1.23,-0.5 1.8,-0.79 3.14,-1.57 5.49,-3.77 7.05,-6.61 1.57,-2.83 2.34,-6.13 2.34,-9.87 0,-3.75 -0.77,-7.07 -2.33,-9.95 -1.56,-2.88 -3.89,-5.13 -7.02,-6.76 -3.14,-1.63 -7.07,-2.45 -11.81,-2.45l-21.8 0 0 61.15 9.24 0 0 -23.14 -0.01 0 12.55 0c0.2,0 0.4,0 0.59,0l0.01 0 12.43 23.14 10.51 0 -13.53 -24.72zm-86.78 24.72l0 -61.15 22.39 0c4.35,0 7.95,0.72 10.8,2.14 2.84,1.41 4.97,3.34 6.39,5.76 1.41,2.41 2.12,5.14 2.12,8.17 0,2.54 -0.48,4.69 -1.41,6.43 -0.94,1.74 -2.18,3.14 -3.76,4.17 -1.55,1.05 -3.27,1.81 -5.14,2.29l0 0.6c2.03,0.1 4.01,0.74 5.96,1.95 1.93,1.2 3.55,2.91 4.82,5.13 1.28,2.2 1.9,4.89 1.9,8.05 0,3.13 -0.73,5.93 -2.18,8.41 -1.47,2.47 -3.73,4.44 -6.77,5.88 -3.04,1.44 -6.94,2.15 -11.67,2.15l-23.44 0z"/></g></svg>