<svg xmlns="http://www.w3.org/2000/svg" width="24" height="24" viewBox="0 0 24 24" fill="none"><path d="M12 1C12.7886 1 13.4286 1.59733 13.4286 2.33333V3.66667H17C18.3261 3.66667 19.5979 4.15833 20.5355 5.0335C21.4732 5.90867 22 7.09566 22 8.33333V14.3333C22 15.571 21.4732 16.758 20.5355 17.6332C19.5979 18.5083 18.3261 19 17 19H14.8571L12 23L9.14286 19H7C5.67392 19 4.40215 18.5083 3.46447 17.6332C2.52678 16.758 2 15.571 2 14.3333V8.33333C2 7.09566 2.52678 5.90867 3.46447 5.0335C4.40215 4.15833 5.67392 3.66667 7 3.66667H10.5714V2.33333C10.5714 1.59733 11.2114 1 12 1ZM7.71429 10.3333C7.33541 10.3333 6.97204 10.4738 6.70413 10.7239C6.43622 10.9739 6.28571 11.313 6.28571 11.6667C6.28571 12.0203 6.43622 12.3594 6.70413 12.6095C6.97204 12.8595 7.33541 13 7.71429 13C8.09317 13 8.45653 12.8595 8.72444 12.6095C8.99235 12.3594 9.14286 12.0203 9.14286 11.6667C9.14286 11.313 8.99235 10.9739 8.72444 10.7239C8.45653 10.4738 8.09317 10.3333 7.71429 10.3333ZM16.2857 10.3333C15.9068 10.3333 15.5435 10.4738 15.2756 10.7239C15.0077 10.9739 14.8571 11.313 14.8571 11.6667C14.8571 12.0203 15.0077 12.3594 15.2756 12.6095C15.5435 12.8595 15.9068 13 16.2857 13C16.6646 13 17.028 12.8595 17.2959 12.6095C17.5638 12.3594 17.7143 12.0203 17.7143 11.6667C17.7143 11.313 17.5638 10.9739 17.2959 10.7239C17.028 10.4738 16.6646 10.3333 16.2857 10.3333ZM12 17C13.5714 17 14.8571 15.8 14.8571 14.3333H9.14286C9.14286 15.8 10.4286 17 12 17Z" fill="black"/></svg>